# xmcd CD database file
#
# Track frame offsets:
#	150
#	10957
#	24902
#	41252
#	59705
#	79647
#	89400
#	115045
#	134090
#	148267
#
# Disc length: 2299 seconds
#
# Revision: 2
# Processed by: cddbd v1.4PL0 Copyright (c) Steve Scherf et al.
# Submitted via: CDex 1.51
#
DISCID=8408f90a
DTITLE=Los Toreros Muertos - 30 Años De Exitos
DYEAR=1986
DGENRE=Latin
TTITLE0=Los Toreros Muertos
TTITLE1=Bum Bum 1789
TTITLE2=Hoy Es Domingo
TTITLE3=D.N.I.
TTITLE4=Yo No Me Llamo Javier
TTITLE5=Twist'as Loca
TTITLE6=Mi Agüita Amarilla
TTITLE7=Soy Un Animal
TTITLE8=Necesito Un Avalista
TTITLE9=Dejadme Llorar
EXTD=YEAR: 1986
EXTT0=
EXTT1=
EXTT2=
EXTT3=
EXTT4=
EXTT5=
EXTT6=
EXTT7=
EXTT8=
EXTT9=
PLAYORDER=
